<svg width="52" height="59" viewBox="0 0 52 59" fill="none" xmlns="http://www.w3.org/2000/svg">
<path d="M8.83874 13.0308L12.2257 16.4161L14.4987 14.1431L11.1142 10.7586L8.83874 13.0308Z" fill="#1C3879"/>
<path d="M37.4343 14.1431L39.709 16.4161L43.0943 13.0325L40.8204 10.7586L37.4343 14.1431Z" fill="#1C3879"/>
<path d="M43.8673 29.5014V26.2681H48.7173V29.5014H43.8673Z" fill="#1C3879"/>
<path fill-rule="evenodd" clip-rule="evenodd" d="M11.1142 10.7586L11.115 10.7578H11.1134L11.1142 10.7586ZM40.8204 10.7586L40.8213 10.7578H40.8196L40.8204 10.7586ZM3.33398 29.5014V26.2681H8.18398V29.5014H3.33398ZM8.84035 42.7371L12.2257 39.3534L14.4971 41.6264L11.115 45.0117L8.84035 42.7371ZM37.436 41.6264L39.709 39.3534L43.0943 42.7371L40.8196 45.0117L37.436 41.6264Z" fill="#1C3879"/>
<path fill-rule="evenodd" clip-rule="evenodd" d="M25.9673 11.7666C25.4338 11.7731 24.8939 11.8038 24.3507 11.8701C24.3453 11.8701 24.3399 11.8697 24.3345 11.8694C24.3237 11.8686 24.3129 11.8679 24.3022 11.8701C17.745 12.6218 12.5264 17.9196 11.6194 24.4477C10.8951 29.7019 13.0615 34.4662 16.6715 37.5347C18.1482 38.7949 19.147 40.5243 19.5007 42.4332V52.1332H23.1867C23.7493 53.0983 24.7758 53.7498 25.9673 53.7498C27.1588 53.7498 28.1854 53.0983 28.748 52.1332H32.434V45.6665H32.586V43.7459C32.586 41.3759 33.8179 38.9864 35.8193 37.1289C38.4965 34.4484 40.5173 30.6412 40.5173 26.2681C40.5173 18.2818 33.944 11.6922 25.9673 11.7666ZM37.284 26.2681C37.284 20.0278 32.2157 14.9126 25.9673 14.9999L25.9641 15.0016C25.5421 15.0122 25.1211 15.0467 24.7031 15.105C19.6397 15.666 15.5075 19.761 14.801 24.8535C14.2319 28.9793 15.9343 32.6329 18.7909 35.0579C21.0365 36.9818 22.2247 39.6638 22.5804 42.4348H29.6517C30.0435 39.5261 31.4387 36.8455 33.5964 34.8558L33.5446 34.8041C35.7158 32.6345 37.284 29.6534 37.284 26.2681ZM29.2007 45.6681H22.734V48.9014H29.2007V45.6681Z" fill="#1C3879"/>
<path fill-rule="evenodd" clip-rule="evenodd" d="M27.8338 4.73438L27.8338 9.53437H24.6338L24.6338 4.73438H27.8338Z" fill="#1C3879"/>
</svg>
