<svg width="54" height="54" viewBox="0 0 54 54" fill="none" xmlns="http://www.w3.org/2000/svg">
<path fill-rule="evenodd" clip-rule="evenodd" d="M5.04492 35.6547C5.04492 33.0026 6.09849 30.459 7.97385 28.5837C9.84922 26.7083 12.3928 25.6547 15.0449 25.6547H39.4894C42.1415 25.6547 44.6851 26.7083 46.5604 28.5837C48.4358 30.459 49.4894 33.0026 49.4894 35.6547C49.4894 38.3069 48.4358 40.8504 46.5604 42.7258C44.6851 44.6012 42.1415 45.6547 39.4894 45.6547H15.0449C12.3928 45.6547 9.84922 44.6012 7.97385 42.7258C6.09849 40.8504 5.04492 38.3069 5.04492 35.6547ZM10.3309 30.9407C11.5811 29.6904 13.2768 28.9881 15.0449 28.9881H39.4894C41.2575 28.9881 42.9532 29.6904 44.2034 30.9407C45.4537 32.1909 46.156 33.8866 46.156 35.6547C46.156 37.4228 45.4537 39.1185 44.2034 40.3688C42.9532 41.619 41.2575 42.3214 39.4894 42.3214H15.0449C13.2768 42.3214 11.5811 41.619 10.3309 40.3688C9.08063 39.1185 8.37826 37.4228 8.37826 35.6547C8.37826 33.8866 9.08063 32.1909 10.3309 30.9407Z" fill="#1C3879"/>
<path d="M16.156 38.9881C17.0401 38.9881 17.8879 38.6369 18.5131 38.0118C19.1382 37.3866 19.4894 36.5388 19.4894 35.6547C19.4894 34.7707 19.1382 33.9228 18.5131 33.2977C17.8879 32.6726 17.0401 32.3214 16.156 32.3214C15.272 32.3214 14.4241 32.6726 13.799 33.2977C13.1739 33.9228 12.8227 34.7707 12.8227 35.6547C12.8227 36.5388 13.1739 37.3866 13.799 38.0118C14.4241 38.6369 15.272 38.9881 16.156 38.9881Z" fill="#1C3879"/>
<path d="M30.6005 35.6547C30.6005 36.5388 30.2493 37.3866 29.6242 38.0118C28.9991 38.6369 28.1512 38.9881 27.2671 38.9881C26.3831 38.9881 25.5352 38.6369 24.9101 38.0118C24.285 37.3866 23.9338 36.5388 23.9338 35.6547C23.9338 34.7707 24.285 33.9228 24.9101 33.2977C25.5352 32.6726 26.3831 32.3214 27.2671 32.3214C28.1512 32.3214 28.9991 32.6726 29.6242 33.2977C30.2493 33.9228 30.6005 34.7707 30.6005 35.6547Z" fill="#1C3879"/>
<path d="M38.3783 38.9881C39.2623 38.9881 40.1102 38.6369 40.7353 38.0118C41.3604 37.3866 41.7116 36.5388 41.7116 35.6547C41.7116 34.7707 41.3604 33.9228 40.7353 33.2977C40.1102 32.6726 39.2623 32.3214 38.3783 32.3214C37.4942 32.3214 36.6464 32.6726 36.0212 33.2977C35.3961 33.9228 35.0449 34.7707 35.0449 35.6547C35.0449 36.5388 35.3961 37.3866 36.0212 38.0118C36.6464 38.6369 37.4942 38.9881 38.3783 38.9881Z" fill="#1C3879"/>
<path fill-rule="evenodd" clip-rule="evenodd" d="M34.4894 7.87695C32.3427 7.87695 30.6005 9.61918 30.6005 11.7658V17.3214C30.6005 18.3528 31.0102 19.342 31.7395 20.0713C32.4688 20.8006 33.458 21.2103 34.4894 21.2103H40.0449C41.0763 21.2103 42.0655 20.8006 42.7948 20.0713C43.5241 19.342 43.9338 18.3528 43.9338 17.3214V11.7658C43.9338 9.61918 42.1916 7.87695 40.0449 7.87695H34.4894ZM34.0965 11.373C34.2007 11.2688 34.342 11.2103 34.4894 11.2103H40.0449C40.1923 11.2103 40.3336 11.2688 40.4378 11.373C40.542 11.4772 40.6005 11.6185 40.6005 11.7658V17.3214C40.6005 17.4687 40.542 17.61 40.4378 17.7142C40.3336 17.8184 40.1923 17.877 40.0449 17.877H34.4894C34.1827 17.877 33.9338 17.6281 33.9338 17.3214V11.7658C33.9338 11.6185 33.9923 11.4772 34.0965 11.373Z" fill="#1C3879"/>
<path d="M14.4894 7.87695C13.458 7.87695 12.4688 8.28667 11.7395 9.01598C11.0102 9.74529 10.6005 10.7344 10.6005 11.7658V17.3214C10.6005 19.4681 12.3427 21.2103 14.4894 21.2103H20.0449C21.0763 21.2103 22.0655 20.8006 22.7948 20.0713C23.5241 19.342 23.9338 18.3528 23.9338 17.3214V11.7658C23.9338 10.7344 23.5241 9.74529 22.7948 9.01598C22.0655 8.28667 21.0763 7.87695 20.0449 7.87695H14.4894Z" fill="#1C3879"/>
</svg>
