<svg width="54" height="54" viewBox="0 0 54 54" fill="none" xmlns="http://www.w3.org/2000/svg">
<path fill-rule="evenodd" clip-rule="evenodd" d="M40.1787 22.6893L36.6898 26.1782L45.8676 35.356C47.6009 37.0893 47.6009 39.9115 45.8676 41.6448L41.6454 45.8671C40.312 47.2004 37.4676 47.9782 35.3565 45.8671L26.1787 36.6893L15.6009 47.2671H7.26758V38.9337L17.8231 28.356L8.64536 19.1782C6.91202 17.4448 6.91202 14.6226 8.64536 12.8893L12.8676 8.66707C14.6009 6.93373 17.4231 6.93373 19.1565 8.66707L28.3565 17.8448L31.8454 14.356L40.1787 22.6893ZM11.8009 16.0226L21.0009 25.2004L25.2009 20.9782L21.9787 17.756L19.3342 20.4004L16.2009 17.2671L18.8231 14.6226L16.0009 11.8004L11.8009 16.0226ZM29.3342 33.556L38.512 42.7337L42.7342 38.5115L39.912 35.6893L37.2676 38.3337L34.1342 35.2004L36.7787 32.556L33.5565 29.3337L29.3342 33.556Z" fill="#1C3879"/>
<path d="M46.6231 16.2448C46.8291 16.0393 46.9926 15.7951 47.1041 15.5262C47.2156 15.2574 47.273 14.9692 47.273 14.6782C47.273 14.3871 47.2156 14.099 47.1041 13.8301C46.9926 13.5613 46.8291 13.3171 46.6231 13.1115L41.4231 7.91151C40.3787 6.86707 38.9342 7.26707 38.2898 7.91151L34.2231 11.9782L42.5565 20.3115L46.6231 16.2448Z" fill="#1C3879"/>
</svg>
