<svg width="54" height="54" viewBox="0 0 54 54" fill="none" xmlns="http://www.w3.org/2000/svg">
<path fill-rule="evenodd" clip-rule="evenodd" d="M46.569 28.2669L36.569 24.793C36.5221 24.7773 36.4805 24.7721 36.4336 24.7721C36.3867 24.7721 36.3399 24.7773 36.2982 24.793L26.2982 28.2669C26.2165 28.2947 26.1455 28.3472 26.0951 28.4172C26.0446 28.4873 26.0173 28.5713 26.0169 28.6576V41.7357C26.0169 41.8659 26.0742 41.9857 26.1784 42.0638L36.1784 49.8867C36.2513 49.944 36.3451 49.9753 36.4336 49.9753C36.5221 49.9753 36.6159 49.944 36.6888 49.8867L46.6888 42.0638C46.7878 41.9857 46.8503 41.8659 46.8503 41.7357V28.6576C46.8503 28.4805 46.7357 28.3242 46.569 28.2669ZM36.4336 45.9961L43.6211 40.3763V30.6523L36.4336 28.1523L29.2461 30.6523V40.3763L36.4336 45.9961Z" fill="#1C3879"/>
<path fill-rule="evenodd" clip-rule="evenodd" d="M36.4336 16.5378V14.0378C36.4336 13.8086 36.2461 13.6211 36.0169 13.6211H16.0169C15.7878 13.6211 15.6003 13.8086 15.6003 14.0378V16.5378C15.6003 16.7669 15.7878 16.9544 16.0169 16.9544H36.0169C36.2461 16.9544 36.4336 16.7669 36.4336 16.5378ZM16.0169 21.1211C15.7878 21.1211 15.6003 21.3086 15.6003 21.5378V24.0378C15.6003 24.2669 15.7878 24.4544 16.0169 24.4544H25.6003C25.8294 24.4544 26.0169 24.2669 26.0169 24.0378V21.5378C26.0169 21.3086 25.8294 21.1211 25.6003 21.1211H16.0169ZM25.6003 44.9753H11.4336V8.30859H40.6003V23.7253C40.6003 23.9544 40.7878 24.1419 41.0169 24.1419H43.9336C44.1628 24.1419 44.3503 23.9544 44.3503 23.7253V6.22526C44.3503 5.30339 43.6055 4.55859 42.6836 4.55859H9.35026C8.42839 4.55859 7.68359 5.30339 7.68359 6.22526V47.0586C7.68359 47.9805 8.42839 48.7253 9.35026 48.7253H25.6003C25.8294 48.7253 26.0169 48.5378 26.0169 48.3086V45.3919C26.0169 45.1628 25.8294 44.9753 25.6003 44.9753Z" fill="#1C3879"/>
<path d="M34.1784 35.4544C34.1399 35.4008 34.089 35.3571 34.0301 35.3272C33.9712 35.2973 33.9059 35.282 33.8398 35.2826H31.5378C31.1992 35.2826 31.0013 35.668 31.1992 35.944L35.043 41.2617C35.2096 41.4909 35.5482 41.4909 35.7148 41.2617L41.6628 33.0326C41.8607 32.7565 41.6628 32.3711 41.3242 32.3711H39.0169C38.8815 32.3711 38.7565 32.4336 38.6784 32.543L35.3711 37.1159L34.1784 35.4544Z" fill="#1C3879"/>
</svg>
