<svg width="46" height="46" fill="none" xmlns="http://www.w3.org/2000/svg"><path fill-rule="evenodd" clip-rule="evenodd" d="M12.888 20.11l-4.333-1.833 4.667-4.667 3.11.611A41.606 41.606 0 0014.5 17.11a57.13 57.13 0 00-1.61 3zm14.888 6.333c-1.777 1.222-3.444 2.13-5 2.722l-6.332-6.278c.592-1.555 1.5-3.222 2.722-5a35.528 35.528 0 014.166-4.999c2.592-2.59 5.481-4.618 8.666-6.082 3.185-1.463 6.11-2.103 8.777-1.917.187 2.668-.451 5.584-1.915 8.75-1.464 3.166-3.492 6.045-6.084 8.637a35.514 35.514 0 01-5 4.167zm4.278 6l-4.667 4.666-1.833-4.389a78.258 78.258 0 003-1.584 34.976 34.976 0 002.889-1.805l.61 3.111zM43.47 13.916c1.573-4.241 2.008-8.603 1.304-13.084C40.294.13 35.942.574 31.72 2.166c-4.222 1.593-8.258 4.315-12.11 8.167l-5.5-1.111a4.406 4.406 0 00-2.193.11 4.431 4.431 0 00-1.862 1.112L.778 19.776l10.944 4.667 9.499 9.5 4.666 10.943 9.333-9.333a4.451 4.451 0 001.111-1.833 4.28 4.28 0 00.111-2.166l-1.11-5.502c3.852-3.849 6.566-7.894 8.139-12.135zM9.473 29.527c-1.871.018-3.455.675-4.75 1.971-.927.924-1.723 2.47-2.39 4.637-.666 2.168-1.259 5.159-1.777 8.973 3.816-.518 6.807-1.11 8.972-1.777 2.166-.667 3.712-1.463 4.638-2.39 1.298-1.294 1.955-2.877 1.973-4.748.018-1.87-.621-3.454-1.917-4.75-1.295-1.295-2.878-1.934-4.75-1.916zm-2.696 7.11c.37-.981.741-1.658 1.112-2.028a2.288 2.288 0 011.61-.696 2.105 2.105 0 011.612.64c.444.445.648.982.61 1.611A2.406 2.406 0 0111 37.775c-.368.37-1.044.73-2.026 1.083-.982.352-1.973.602-2.973.75a14.39 14.39 0 01.777-2.97z" fill="#1C3879"/><path d="M26.332 19.276c-.852-.851-1.278-1.897-1.278-3.137s.426-2.287 1.278-3.14c.852-.852 1.907-1.278 3.166-1.278 1.26 0 2.315.426 3.167 1.278.852.852 1.278 1.899 1.278 3.14s-.426 2.287-1.278 3.137c-.852.852-1.907 1.278-3.167 1.278-1.259 0-2.314-.426-3.166-1.277z" fill="#BE1622"/></svg>