<svg width="176" height="48" viewBox="0 0 176 48" fill="none" xmlns="http://www.w3.org/2000/svg">
<path d="M84.9236 37.4239L85.3081 37.0851L82.7811 34.1457C82.6433 33.9614 82.4703 33.8065 82.2722 33.6902C82.0741 33.5738 81.8549 33.4983 81.6274 33.4679C81.3988 33.4647 81.1719 33.5076 80.9602 33.5943C80.7485 33.6809 80.5564 33.8095 80.3952 33.9723C80.2117 34.1107 80.0575 34.2844 79.9416 34.4833C79.8257 34.6822 79.7505 34.9023 79.7203 35.1307C79.7171 35.3602 79.7598 35.5881 79.8461 35.8006C79.9324 36.0132 80.0605 36.2061 80.2226 36.368L81.6431 38.0229C81.7139 38.0815 81.7697 38.1564 81.8057 38.2412C81.8417 38.326 81.8569 38.4182 81.8499 38.5101C81.843 38.6021 81.8142 38.691 81.7659 38.7694C81.7176 38.8478 81.6513 38.9134 81.5725 38.9606C81.5141 39.0318 81.4395 39.0878 81.355 39.1239C81.2706 39.1601 81.1787 39.1753 81.0872 39.1684C80.9956 39.1614 80.9071 39.1325 80.829 39.084C80.7509 39.0355 80.6856 38.9689 80.6385 38.8897L78.4803 36.4152C78.4412 36.3575 78.3896 36.3093 78.3294 36.2743C78.2692 36.2393 78.2019 36.2184 78.1325 36.2131C78.0632 36.2078 77.9935 36.2182 77.9287 36.2437C77.8639 36.2691 77.8057 36.3089 77.7583 36.3601L77.3659 36.6989L79.9558 39.7093C80.1019 39.9068 80.2893 40.0699 80.5049 40.1869C80.7205 40.304 80.959 40.3723 81.2036 40.387C81.63 40.3576 82.0326 40.1791 82.3416 39.8827C82.528 39.7535 82.6832 39.5839 82.7957 39.3866C82.9083 39.1892 82.9753 38.9689 82.9919 38.7421C83.0084 38.5153 82.9741 38.2876 82.8914 38.0758C82.8088 37.8641 82.6799 37.6736 82.5142 37.5185L81.0937 35.8636C80.9948 35.728 80.9503 35.5599 80.969 35.3929C80.9877 35.2258 81.0684 35.0719 81.1949 34.9618C81.3213 34.8516 81.4845 34.7932 81.6518 34.7983C81.8192 34.8033 81.9786 34.8713 82.0983 34.9889L84.1702 37.4003C84.2122 37.4604 84.2675 37.5099 84.3319 37.5448C84.3963 37.5797 84.4678 37.5991 84.541 37.6014C84.6141 37.6037 84.6867 37.5889 84.7531 37.5581C84.8195 37.5273 84.8779 37.4813 84.9236 37.4239Z" fill="#1369AA"/>
<path d="M89.9463 40.0639L88.3767 39.1813C88.1521 39.0125 87.8918 38.8978 87.616 38.8461C87.3402 38.7944 87.0563 38.8072 86.7862 38.8834C86.5161 38.9595 86.267 39.0971 86.0584 39.2854C85.8497 39.4738 85.687 39.7078 85.5828 39.9694L84.798 41.3957C84.6298 41.6219 84.5156 41.8838 84.4642 42.1613C84.4127 42.4388 84.4254 42.7244 84.5012 42.9962C84.5771 43.268 84.714 43.5187 84.9015 43.729C85.089 43.9393 85.3221 44.1035 85.5828 44.2091L87.1524 45.0917C87.5097 45.311 87.9188 45.4307 88.3375 45.4384C88.6859 45.4171 89.0216 45.299 89.3071 45.0972C89.5926 44.8954 89.8166 44.6179 89.9542 44.2957L90.739 42.8615C90.9056 42.6355 91.0185 42.3742 91.0691 42.0976C91.1197 41.821 91.1066 41.5365 91.0309 41.2658C90.9551 40.995 90.8187 40.7453 90.6321 40.5356C90.4455 40.3259 90.2136 40.1619 89.9542 40.056L89.9463 40.0639ZM88.0157 40.1743L89.2871 40.8835C89.5405 41.0002 89.7379 41.2126 89.8364 41.4745C89.8645 41.6097 89.8651 41.7492 89.8381 41.8847C89.8111 42.0201 89.7572 42.1486 89.6795 42.2626L88.8947 43.6968C88.8474 43.8316 88.7685 43.9529 88.6646 44.0506C88.5608 44.1483 88.4351 44.2195 88.2981 44.2581C88.1611 44.2968 88.0169 44.3017 87.8776 44.2726C87.7383 44.2435 87.608 44.1812 87.4977 44.0909L86.2342 43.3816C86.1058 43.3249 85.9901 43.2425 85.8944 43.1396C85.7986 43.0366 85.7246 42.9152 85.677 42.7827C85.6263 42.5095 85.6826 42.2273 85.8339 41.9946L86.6187 40.5604C86.7373 40.3029 86.9513 40.1021 87.2152 40.0009C87.2777 39.9933 87.341 39.9933 87.4035 40.0009C87.6203 40.0104 87.8311 40.0756 88.0157 40.19V40.1743Z" fill="#1369AA"/>
<path d="M97.708 42.7594L97.2372 45.9115C97.2386 46.0532 97.2067 46.1933 97.144 46.3202C97.0812 46.4472 96.9895 46.5574 96.8762 46.642C96.763 46.7265 96.6314 46.7829 96.4922 46.8066C96.3531 46.8303 96.2103 46.8207 96.0756 46.7784L94.7336 46.5814C94.5916 46.5833 94.4512 46.5512 94.3239 46.4878C94.1967 46.4243 94.0864 46.3314 94.002 46.2167C93.9176 46.1019 93.8617 45.9687 93.8388 45.8279C93.8159 45.6871 93.8267 45.5429 93.8703 45.4072L94.3334 42.255C94.3495 42.1872 94.3507 42.1166 94.337 42.0483C94.3232 41.9799 94.2948 41.9154 94.2538 41.8592C94.2127 41.803 94.1599 41.7564 94.0992 41.7227C94.0384 41.689 93.971 41.6689 93.9017 41.664L93.2111 41.5615L92.6696 45.2259C92.5897 45.4987 92.5737 45.7863 92.6228 46.0663C92.672 46.3463 92.7849 46.6111 92.9528 46.84C93.1208 47.0689 93.3391 47.2557 93.5909 47.3858C93.8426 47.5159 94.1209 47.5858 94.404 47.5901L96.0992 47.8423C96.2689 47.8573 96.4396 47.8573 96.6093 47.8423C96.9957 47.856 97.3761 47.7425 97.6923 47.5192C97.9131 47.3424 98.0962 47.1231 98.231 46.874C98.3658 46.6249 98.4495 46.3513 98.4771 46.0692L99.0187 42.4126L98.328 42.3102C98.2572 42.2845 98.1812 42.2766 98.1066 42.2871C98.032 42.2976 97.9611 42.3262 97.9 42.3705C97.8389 42.4147 97.7895 42.4733 97.756 42.541C97.7226 42.6088 97.7061 42.6837 97.708 42.7594Z" fill="#1369AA"/>
<path d="M106.27 44.2328C106.483 43.9472 106.602 43.6014 106.609 43.2445C106.615 42.8876 106.51 42.5376 106.308 42.2439C106.106 41.9503 105.817 41.7279 105.482 41.6082C105.147 41.4886 104.783 41.4777 104.442 41.5771L100.651 42.3652L101.797 48.0155L102.48 47.8736C102.549 47.8676 102.616 47.8458 102.676 47.8101C102.736 47.7744 102.787 47.7255 102.825 47.6672C102.864 47.6088 102.889 47.5426 102.898 47.4732C102.908 47.4039 102.901 47.3334 102.88 47.2668L102.511 45.4543L103.853 45.1785L105.823 46.7546C105.939 46.8565 106.075 46.9319 106.223 46.9754C106.371 47.019 106.526 47.0297 106.678 47.0068L107.683 46.8019L105.273 44.8712C105.673 44.7902 106.029 44.5626 106.27 44.2328ZM104.701 43.9334L102.276 44.4299L102.024 43.1217L104.457 42.6252C104.633 42.5746 104.822 42.5943 104.983 42.6804C105.054 42.7367 105.113 42.807 105.156 42.8869C105.2 42.9669 105.226 43.0548 105.234 43.1453C105.268 43.2303 105.281 43.3221 105.273 43.4132C105.264 43.5042 105.234 43.5919 105.185 43.669C105.136 43.746 105.069 43.8102 104.99 43.8562C104.911 43.9022 104.823 43.9286 104.732 43.9334H104.701Z" fill="#1369AA"/>
<path d="M114.848 42.3573C114.819 42.2938 114.776 42.2376 114.722 42.1929C114.668 42.1482 114.605 42.1159 114.538 42.0986C114.47 42.0813 114.4 42.0792 114.331 42.0926C114.263 42.106 114.198 42.1345 114.142 42.1761L111.787 43.5788C111.558 43.7368 111.278 43.8015 111.003 43.76C110.869 43.7167 110.745 43.646 110.64 43.5524C110.535 43.4588 110.45 43.3444 110.39 43.2163L109.551 41.8136C109.46 41.7048 109.396 41.5759 109.365 41.4376C109.333 41.2993 109.335 41.1554 109.369 41.0178C109.403 40.8802 109.47 40.7527 109.563 40.6459C109.656 40.539 109.773 40.4558 109.904 40.403L112.164 39.0475C112.227 39.0172 112.282 38.9734 112.326 38.9192C112.369 38.8649 112.401 38.8016 112.417 38.7338C112.434 38.666 112.435 38.5954 112.421 38.527C112.407 38.4586 112.378 38.3942 112.337 38.3383L112.078 37.897L109.221 39.607C108.964 39.72 108.737 39.8906 108.556 40.1056C108.375 40.3207 108.245 40.5745 108.177 40.8476C108.109 41.1207 108.104 41.4059 108.162 41.6812C108.221 41.9566 108.341 42.2148 108.515 42.4361L109.347 43.8389C109.47 44.0946 109.645 44.3224 109.86 44.508C110.074 44.6936 110.324 44.8333 110.594 44.9185C110.723 44.9502 110.855 44.9661 110.987 44.9658C111.412 44.9476 111.824 44.8142 112.18 44.5796L115.115 42.8223L114.848 42.381V42.3573Z" fill="#1369AA"/>
<path d="M120.797 36.0451C120.748 35.9955 120.688 35.9574 120.622 35.9334C120.557 35.9094 120.487 35.9001 120.417 35.9061C120.348 35.9121 120.28 35.9333 120.22 35.9682C120.159 36.0031 120.107 36.0508 120.067 36.1081L117.658 38.9845L116.645 38.1255L119.157 35.1388L118.372 34.469L115.868 37.4636L114.848 36.6046L117.203 33.7991C117.296 33.696 117.347 33.5605 117.344 33.4209C117.336 33.352 117.314 33.2855 117.278 33.2258C117.243 33.1661 117.196 33.1144 117.14 33.0741L116.747 32.7432L113.286 36.8647L117.673 40.5764L121.197 36.3839L120.797 36.0451Z" fill="#1369AA"/>
<path d="M22.7593 14.3262C22.7959 18.7761 20.5985 21.022 16.1669 21.064L4.02604 21.1744L4.10452 29.8429C4.13461 30.0569 4.11474 30.275 4.0465 30.48C3.97826 30.685 3.86351 30.8713 3.7113 31.0241C3.55909 31.177 3.37359 31.2922 3.16943 31.3607C2.96528 31.4292 2.74806 31.4492 2.53491 31.419H0.180505L0 7.87998L16.0492 7.73814C20.4912 7.67509 22.7279 9.87112 22.7593 14.3262ZM18.8353 14.3262C18.8353 11.9621 17.6345 10.7958 15.2801 10.8194L3.92402 10.9534L3.9868 18.0458L15.3429 17.9434C17.7078 17.9118 18.8719 16.7166 18.8353 14.3577V14.3262Z" fill="#BE1622"/>
<path d="M47.9437 31.0095H45.5892C45.0819 31.0273 44.5818 30.8848 44.1594 30.602C43.737 30.3193 43.4136 29.9105 43.2348 29.4334L41.367 25.4932L28.4491 25.6114L26.6598 29.5516C26.4817 30.0196 26.1651 30.4216 25.7526 30.7034C25.34 30.9852 24.8514 31.1333 24.3525 31.1277H22.0373L32.8519 7.54932H36.7759L47.9437 31.0095ZM39.9701 22.4277L34.8453 11.6944L29.9167 22.5143L39.9701 22.4277Z" fill="#BE1622"/>
<path d="M74.8388 7.17871L75.0429 30.7335H71.1189L55.3051 12.2301L55.4542 29.3701C55.486 29.5845 55.4673 29.8033 55.3997 30.0091C55.332 30.2149 55.2173 30.4019 55.0647 30.5551C54.9121 30.7084 54.7259 30.8236 54.5209 30.8915C54.316 30.9594 54.098 30.9781 53.8846 30.9462H51.5302L51.3497 7.3836H55.2737L71.0875 25.9185L70.9384 8.78633C70.9083 8.5723 70.9281 8.35419 70.9964 8.14919C71.0646 7.94419 71.1794 7.75792 71.3316 7.60508C71.4838 7.45225 71.6693 7.33702 71.8735 7.26849C72.0776 7.19997 72.2948 7.18002 72.508 7.21023L74.8388 7.17871Z" fill="#BE1622"/>
<path d="M146.499 28.5586V30.1347L124.179 30.3396L123.999 6.73754L145.926 6.54053V8.11662C145.96 8.33128 145.942 8.55085 145.875 8.75745C145.808 8.96404 145.694 9.15181 145.541 9.30545C145.388 9.45909 145.201 9.57425 144.995 9.64155C144.789 9.70885 144.57 9.72638 144.357 9.69272L127.876 9.84245L127.939 16.9349L144.773 16.7852V19.9373L127.939 20.0871L128.001 27.1795L144.835 27.0298C145.051 26.9827 145.275 26.9882 145.489 27.046C145.702 27.1038 145.898 27.2121 146.061 27.3619C146.224 27.5117 146.349 27.6985 146.425 27.9067C146.502 28.1149 146.527 28.3385 146.499 28.5586Z" fill="#BE1622"/>
<path d="M176 29.8666H173.646C173.138 29.8833 172.639 29.7403 172.217 29.4576C171.795 29.175 171.471 28.767 171.291 28.2905L169.518 24.4291L156.6 24.5473L154.81 28.4876C154.629 28.9537 154.312 29.3538 153.9 29.6352C153.488 29.9165 153.001 30.0659 152.503 30.0637H150.188L160.94 6.42221L164.864 6.38281L176 29.8666ZM168.026 21.2769L162.902 10.5437L157.973 21.3715L168.026 21.2769Z" fill="#BE1622"/>
<path d="M111.772 16.1706C111.772 15.8632 111.701 15.5638 111.654 15.2564C111.481 14.1689 110.963 13.8379 109.723 14.0586C109.763 14.3029 110.1 14.429 110.045 14.8466C109.468 14.3646 108.93 13.8376 108.436 13.2705C108.891 13.1917 109.088 13.5148 109.339 13.3415C109.362 13.3222 109.38 13.2981 109.393 13.2709C109.406 13.2437 109.412 13.2139 109.412 13.1839C109.412 13.1538 109.406 13.124 109.393 13.0968C109.38 13.0696 109.362 13.0455 109.339 13.0262C108.899 12.6795 108.742 12.1594 108.381 11.7732C108.038 11.2879 107.548 10.926 106.984 10.7409C106.663 10.67 106.6 10.4966 106.435 10.276C106.139 9.87163 105.8 9.5016 105.423 9.17269C105.164 8.94415 104.905 8.7235 104.638 8.51861L104.23 8.20339C103.924 7.96698 103.618 7.73844 103.319 7.49415C103.135 7.40765 102.934 7.36452 102.731 7.36806C102.078 7.28523 101.441 7.10736 100.839 6.84007C100.381 6.61553 99.8726 6.51502 99.3639 6.54849C99.2444 6.55798 99.1262 6.57909 99.0108 6.61153C98.6355 6.66345 98.2536 6.59447 97.9199 6.41452C97.2249 6.15923 96.4845 6.05188 95.746 6.0993C95.3178 6.13327 94.8972 6.23156 94.4981 6.39088C94.0294 6.58814 93.5733 6.81449 93.1326 7.0686L92.8814 7.22621C92.5273 7.44441 92.1866 7.68389 91.8612 7.94333C91.6487 8.07443 91.4904 8.27812 91.4154 8.51698C91.3405 8.75585 91.3538 9.01385 91.4531 9.24361C91.7592 9.79525 92.1359 9.3697 92.4733 9.24361C92.6946 9.1116 92.9556 9.06365 93.2091 9.10848C93.4626 9.15331 93.6916 9.28794 93.8546 9.48791L94.6865 11.4029C94.6221 11.3769 94.5614 11.3424 94.506 11.3004C94.3306 11.1546 94.1217 11.0552 93.8983 11.0112C93.6749 10.9671 93.444 10.9799 93.2268 11.0482C93.0326 11.1012 92.8273 11.0959 92.6362 11.0329C92.4451 10.9698 92.2766 10.8519 92.1516 10.6936C91.6885 10.2287 91.202 10.2602 90.8959 10.8355C90.8489 10.9469 90.7636 11.0376 90.6556 11.0911C90.5475 11.1447 90.4239 11.1574 90.3073 11.127H90.2524C89.5007 11.0727 88.7498 11.2427 88.0941 11.6156C87.7959 11.7709 87.5076 11.9446 87.2309 12.1357L87.0504 12.2618H87.0111C86.8778 12.3569 86.7699 12.4837 86.6974 12.6308C86.6248 12.778 86.5897 12.9409 86.5952 13.105C86.7207 13.4439 87.1681 13.1602 87.4741 13.1445C87.5997 13.1241 87.7231 13.0925 87.843 13.0499L88.1648 13.1917C88.3924 13.239 88.6121 13.2627 88.5336 13.5858C88.3328 14.5009 88.0706 15.4013 87.7488 16.2809C87.5646 16.7439 87.3304 17.1852 87.0504 17.5969C86.8149 17.9358 86.8777 18.2746 87.3093 18.5662C87.4459 18.6463 87.5587 18.7616 87.636 18.9001C87.7132 19.0387 87.7522 19.1955 87.7488 19.3543C87.7347 19.4552 87.7056 19.5535 87.6625 19.6458C87.4428 20.1108 87.6625 20.2842 88.1412 20.3709C88.3071 20.3958 88.4654 20.4577 88.6043 20.5521C88.7227 20.6276 88.8211 20.7309 88.8908 20.8531C88.9605 20.9753 88.9996 21.1127 89.0045 21.2535C89.0089 21.2848 89.0089 21.3167 89.0045 21.348L88.824 21.4741C88.515 21.585 88.1933 21.6564 87.8666 21.6869C87.5762 21.6869 87.0817 21.5608 87.0817 21.9075C87.0817 22.2543 87.5134 22.3489 87.8666 22.4355C87.9424 22.4395 88.0183 22.4395 88.0941 22.4355C88.1693 22.4329 88.2433 22.4544 88.3054 22.4969C88.3675 22.5395 88.4144 22.6008 88.4395 22.672C88.5022 22.869 88.3453 22.8926 88.1962 22.9478C87.843 23.066 87.7174 23.2551 87.9293 23.594C87.9664 23.6547 87.991 23.7222 88.0018 23.7925C88.0126 23.8629 88.0093 23.9347 87.9921 24.0038C87.9796 24.0744 87.9585 24.1432 87.9293 24.2086C87.7017 24.6657 87.7488 24.9336 88.3924 24.8785C88.62 24.8785 88.8633 24.8785 88.926 25.1622C88.9888 25.4459 89.24 25.5089 89.5225 25.6035C89.8696 25.7075 90.206 25.8447 90.527 26.0133L90.6212 26.0606L90.7075 26.1236L90.8331 26.2182C91.508 26.7068 91.7121 27.3766 91.6179 28.5429C91.6179 28.7242 91.5002 28.9369 91.6964 29.0709C92.5518 29.6619 93.266 30.4421 94.1371 30.9622C94.3098 31.0647 94.4903 31.175 94.6943 31.0174C94.8984 30.8598 94.6943 30.6785 94.6943 30.513C94.6943 30.3475 94.0822 30.0481 94.6943 29.7959C95.1181 29.6225 95.4791 29.6619 95.6518 30.1426C95.7538 30.4815 96.0991 30.5051 96.3738 30.6312C95.7852 31.3168 95.8088 31.3562 96.7113 31.5375C97.0896 31.5334 97.4644 31.6113 97.81 31.766C97.9831 31.903 98.1829 32.0019 98.3966 32.0562C98.6102 32.1105 98.8329 32.1191 99.05 32.0812C99.2004 32.0452 99.3437 31.9839 99.4738 31.9C99.5068 31.9809 99.5081 32.0713 99.4775 32.1531C99.447 32.2349 99.3868 32.3021 99.309 32.3413C99.2766 32.3633 99.2475 32.3898 99.2227 32.4201C99.0186 32.625 99.0735 32.9087 99.3011 32.9323C99.6895 33.0183 100.056 33.1847 100.376 33.4209C100.47 33.4684 100.567 33.5079 100.667 33.5391H100.879C101.083 33.5391 101.381 33.6258 101.459 33.5391C101.852 32.8614 102.527 33.0821 103.115 33.0427C103.261 33.0333 103.402 32.993 103.531 32.9245C103.602 32.8889 103.666 32.8409 103.72 32.7826C103.773 32.7235 103.831 32.6682 103.892 32.6171C103.96 32.5593 104.033 32.509 104.112 32.4674H104.159C104.231 32.4279 104.308 32.3962 104.387 32.3728C104.576 32.2998 104.774 32.2521 104.975 32.231L105.305 32.1206L105.556 31.9946C106.114 31.653 106.737 31.4304 107.385 31.3405C107.46 31.34 107.534 31.3226 107.601 31.2896C107.668 31.2566 107.728 31.2089 107.774 31.15C107.821 31.091 107.854 31.0223 107.871 30.9489C107.887 30.8755 107.888 30.7993 107.871 30.7258C107.809 30.3541 107.728 29.9859 107.628 29.6225C107.627 29.5347 107.605 29.4484 107.565 29.3704C107.565 29.1339 107.714 28.7872 107.565 28.6926C107.204 28.4011 108.028 27.4081 106.835 27.6445C106.78 27.6445 106.639 27.4869 106.623 27.3845C106.537 26.888 106.168 26.8013 105.697 26.7225C105.536 26.6996 105.381 26.6433 105.242 26.557L105.077 26.2497L104.865 25.8714L104.638 25.4774V25.0361L104.701 24.8706C104.774 24.7352 104.813 24.5835 104.813 24.4293C104.813 24.2751 104.774 24.1234 104.701 23.988C104.643 23.8733 104.561 23.7724 104.461 23.6921C104.36 23.6119 104.244 23.5543 104.12 23.523C103.453 23.3654 103.602 23.1448 103.955 22.8374L104.285 22.5774L104.355 22.5222C104.497 22.4277 104.732 22.3961 104.654 22.1834C104.575 21.9706 104.355 21.9391 104.143 21.9627C103.931 21.9864 103.822 22.01 103.657 22.0336C103.397 22.0755 103.135 22.1019 102.872 22.1124C102.291 22.1124 102.087 21.8051 102.33 21.3244C102.352 21.2946 102.37 21.263 102.385 21.2298L102.181 21.1274L102.385 21.2298C102.622 20.759 102.832 20.2749 103.013 19.7798C103.086 19.6423 103.111 19.4841 103.084 19.3306C103.084 19.1021 102.833 18.9681 102.456 18.9681C102.079 18.9681 101.883 18.9681 101.601 19.0075C101.318 19.0469 101.153 19.0469 100.941 19.0785C100.581 19.1424 100.211 19.1424 99.8505 19.0785C99.1846 18.9319 98.6034 18.5268 98.2338 17.9515L98.069 17.6521C98.0478 17.471 98.0029 17.2935 97.9356 17.1241C97.851 16.9738 97.8065 16.8042 97.8065 16.6316C97.8065 16.459 97.851 16.2893 97.9356 16.139C98.1318 15.8238 98.6497 15.8317 98.6576 15.3983L98.8067 15.2328C99.4503 15.1067 99.8976 15.6898 100.431 15.682H100.949L102.024 15.7608C102.566 15.7608 103.107 15.7608 103.649 15.7608C103.806 15.7608 104.018 15.6741 104.01 15.5559C104.01 15.083 104.316 14.7678 104.52 14.3896C104.565 14.3147 104.601 14.2355 104.63 14.1532C104.733 13.8296 104.927 13.5425 105.187 13.3257C105.514 13.0694 105.921 12.9402 106.335 12.9619C106.749 12.9836 107.141 13.1548 107.44 13.4439C107.636 13.6252 107.871 13.7591 108.075 13.9325C108.242 14.0704 108.43 14.1796 108.632 14.2556C109.072 14.4526 109.551 14.6181 109.747 15.0436C109.824 15.2304 109.854 15.4335 109.833 15.6347C109.833 16.0445 110.492 16.4227 110.995 16.6749C111.103 16.7442 111.235 16.7681 111.361 16.7416C111.487 16.7151 111.598 16.6403 111.67 16.5331C111.742 16.4264 111.777 16.2993 111.772 16.1706Z" fill="#1369AA"/>
<path d="M104.669 25.5087V25.0674C104.627 25.181 104.603 25.3008 104.599 25.422C104.617 25.4548 104.641 25.4841 104.669 25.5087Z" fill="url(#paint0_linear_77_4370)"/>
<path d="M87.2152 12.1275L87.0347 12.2536H86.9954C86.8621 12.3487 86.7543 12.4755 86.6817 12.6226C86.6091 12.7698 86.574 12.9327 86.5795 13.0968C86.705 13.4357 87.1524 13.152 87.4585 13.1362C87.584 13.1159 87.7074 13.0842 87.8273 13.0417L88.1491 13.1835C88.3767 13.2308 88.5964 13.2544 88.5179 13.5775C88.3171 14.4927 88.0549 15.3931 87.7331 16.2727C87.5489 16.7356 87.3147 17.177 87.0347 17.5887C86.7992 17.9276 86.862 18.2664 87.2937 18.558C87.4302 18.6381 87.543 18.7534 87.6203 18.8919C87.6976 19.0305 87.7365 19.1873 87.7331 19.3461L103.508 32.9084C103.578 32.8728 103.642 32.8248 103.696 32.7665L88.0785 11.6074C87.7802 11.7627 87.4919 11.9364 87.2152 12.1275Z" fill="#1369AA"/>
<path d="M87.639 19.7007C87.4192 20.1656 87.639 20.339 88.1177 20.4257C88.2836 20.4506 88.4418 20.5125 88.5807 20.6069C88.6992 20.6824 88.7975 20.7857 88.8673 20.9079C88.937 21.0301 88.976 21.1675 88.981 21.3083C88.9854 21.3397 88.9854 21.3715 88.981 21.4029L88.8005 21.529C88.4915 21.6398 88.1698 21.7113 87.843 21.7417C87.5527 21.7417 87.0582 21.6156 87.0582 21.9624C87.0582 22.3091 87.4899 22.4037 87.843 22.4904C87.9188 22.4943 87.9948 22.4943 88.0706 22.4904C88.1457 22.4878 88.2197 22.5093 88.2818 22.5518C88.344 22.5943 88.3909 22.6556 88.4159 22.7268C88.4787 22.9238 88.3218 22.9474 88.1726 23.0026C87.8195 23.1208 87.6939 23.3099 87.9058 23.6488C87.9429 23.7095 87.9675 23.777 87.9783 23.8474C87.9891 23.9177 87.9858 23.9895 87.9686 24.0586C87.956 24.1292 87.935 24.198 87.9058 24.2635C87.6782 24.7206 87.7253 24.9885 88.3688 24.9333C88.5964 24.9333 88.8397 24.9333 88.9025 25.217C88.9653 25.5007 89.2164 25.5638 89.499 25.6583C89.8461 25.7623 90.1825 25.8995 90.5035 26.0681L90.5977 26.1154L90.684 26.1784L90.8096 26.273C91.4845 26.7616 91.6886 27.4314 91.5944 28.5978C91.5944 28.779 91.4767 28.9918 91.6729 29.1257C92.5283 29.7168 93.2425 30.4969 94.1136 31.0171C94.2863 31.1195 94.4668 31.2298 94.6708 31.0722C94.8749 30.9146 94.6708 30.7334 94.6708 30.5679C94.6708 30.4024 94.0587 30.1029 94.6708 29.8507C95.0946 29.6774 95.4556 29.7168 95.6283 30.1975C95.7303 30.5363 96.0756 30.56 96.3503 30.6861C95.7617 31.3717 95.7852 31.4111 96.6878 31.5923C97.0661 31.5882 97.4409 31.6662 97.7865 31.8209C97.9596 31.9579 98.1594 32.0568 98.3731 32.1111C98.5867 32.1654 98.8093 32.1739 99.0265 32.1361C99.1769 32.1001 99.3202 32.0388 99.4503 31.9548C99.4832 32.0357 99.4846 32.1261 99.454 32.2079C99.4235 32.2898 99.3633 32.357 99.2855 32.3961C99.2531 32.4181 99.224 32.4447 99.1991 32.4749C98.9951 32.6798 99.05 32.9635 99.2776 32.9872C99.666 33.0731 100.032 33.2395 100.353 33.4758C100.446 33.5232 100.543 33.5628 100.643 33.594H100.855C101.059 33.594 101.357 33.6807 101.436 33.594C101.828 32.9163 102.503 33.1369 103.092 33.0975C103.237 33.0881 103.379 33.0479 103.508 32.9793L87.7332 19.417C87.7158 19.5157 87.684 19.6113 87.639 19.7007Z" fill="#1470B6"/>
<path d="M94.6865 11.3948L103.869 32.6721C103.807 32.7231 103.75 32.7784 103.696 32.8376L88.0785 11.6076C88.7342 11.2346 89.4851 11.0646 90.2367 11.119H90.3073C90.424 11.1493 90.5476 11.1366 90.6556 11.0831C90.7637 11.0295 90.849 10.9388 90.8959 10.8274C91.202 10.2521 91.6807 10.2206 92.1516 10.6855C92.2766 10.8438 92.4451 10.9617 92.6362 11.0248C92.8274 11.0878 93.0327 11.0932 93.2268 11.0402C93.4441 10.9718 93.6749 10.959 93.8983 11.0031C94.1217 11.0471 94.3306 11.1465 94.506 11.2923C94.5614 11.3343 94.6221 11.3688 94.6865 11.3948ZM91.8612 7.94313C91.6487 8.07423 91.4905 8.27792 91.4155 8.51678C91.3405 8.75564 91.3539 9.01365 91.4531 9.24341C91.7592 9.79504 92.1359 9.3695 92.4734 9.24341C92.6946 9.1114 92.9557 9.06345 93.2091 9.10828C93.4626 9.1531 93.6916 9.28773 93.8546 9.4877L92.8815 7.23389C92.5275 7.44954 92.1868 7.68638 91.8612 7.94313Z" fill="#1470B6"/>
<path d="M104.685 25.0673L104.732 24.0192C104.806 24.1546 104.844 24.3063 104.844 24.4605C104.844 24.6147 104.806 24.7664 104.732 24.9018L104.685 25.0673ZM104.952 32.2622L105.281 32.1519L105.533 32.0258C106.091 31.6842 106.713 31.4616 107.361 31.3717C107.436 31.3712 107.51 31.3538 107.577 31.3208C107.645 31.2878 107.704 31.2401 107.751 31.1812C107.797 31.1222 107.83 31.0535 107.847 30.9801C107.864 30.9067 107.864 30.8305 107.848 30.757C107.785 30.3853 107.704 30.0171 107.604 29.6537C107.603 29.5659 107.582 29.4796 107.542 29.4016C107.542 29.1652 107.691 28.8184 107.542 28.7238C107.181 28.4323 108.005 27.4393 106.812 27.6757C106.757 27.6757 106.616 27.5181 106.6 27.4157C106.514 26.9192 106.145 26.8325 105.674 26.7537C105.512 26.7308 105.357 26.6745 105.219 26.5882L105.054 26.2809L104.842 25.9026L104.614 25.5086L104.379 32.404C104.563 32.3323 104.756 32.2846 104.952 32.2622ZM111.772 16.1702C111.79 16.3042 111.762 16.4402 111.693 16.5564C111.621 16.6636 111.51 16.7385 111.384 16.765C111.258 16.7914 111.127 16.7675 111.018 16.6982C110.516 16.4697 109.833 16.0678 109.857 15.658C109.877 15.4569 109.847 15.2538 109.77 15.067C109.574 14.6099 109.096 14.4444 108.656 14.2789C108.454 14.2029 108.265 14.0937 108.099 13.9558C107.895 13.7825 107.659 13.6485 107.463 13.4672C107.165 13.1781 106.773 13.007 106.359 12.9853C105.945 12.9635 105.537 13.0927 105.211 13.349L105.399 9.22754C105.776 9.55645 106.116 9.92648 106.411 10.3308C106.576 10.5515 106.639 10.7248 106.961 10.7958C107.523 10.9788 108.013 11.3378 108.358 11.8202C108.719 12.2064 108.876 12.7265 109.315 13.0732C109.338 13.0924 109.357 13.1165 109.37 13.1438C109.382 13.171 109.389 13.2007 109.389 13.2308C109.389 13.2609 109.382 13.2906 109.37 13.3179C109.357 13.3451 109.338 13.3692 109.315 13.3884C109.064 13.5618 108.868 13.2387 108.413 13.3175C108.907 13.8846 109.445 14.4116 110.022 14.8936C110.077 14.4838 109.739 14.3577 109.7 14.1056C110.94 13.8849 111.458 14.2159 111.63 15.3034C111.701 15.5634 111.74 15.8629 111.772 16.1702Z" fill="#1369AA"/>
<path d="M101.624 19.0546C101.394 19.0546 101.174 19.0782 100.965 19.1255C100.604 19.1894 100.235 19.1894 99.8741 19.1255C99.2081 18.9789 98.627 18.5738 98.2574 17.9986L98.0926 17.6991C98.0713 17.518 98.0265 17.3405 97.9591 17.1711C97.8746 17.0209 97.8301 16.8512 97.8301 16.6786C97.8301 16.506 97.8746 16.3363 97.9591 16.1861C98.1553 15.8708 98.6733 15.8787 98.6812 15.4453L98.8303 15.2798C99.4738 15.1537 99.9212 15.7369 100.455 15.729H100.973L99.3326 6.57188C99.2131 6.58137 99.0948 6.60249 98.9794 6.63492C98.6042 6.68685 98.2222 6.61786 97.8885 6.43791C97.205 6.17889 96.4757 6.06355 95.746 6.09905C95.3179 6.13302 94.8972 6.23131 94.4982 6.39063C94.0294 6.58789 93.5734 6.81424 93.1326 7.06835L92.8815 7.22596L93.8546 9.45614L94.6865 11.3711L103.869 32.6484C103.936 32.5905 104.01 32.5403 104.088 32.4987L101.624 19.0546Z" fill="#1369AA"/>
<path d="M105.399 9.19641L105.211 13.3179C104.95 13.5347 104.757 13.8218 104.653 14.1453C104.625 14.2277 104.588 14.3069 104.544 14.3818C104.34 14.7521 104.002 15.0752 104.033 15.5481C104.033 15.6663 103.829 15.7451 103.672 15.753C103.131 15.753 102.589 15.753 102.048 15.753H101.004L99.3325 6.57221C99.8412 6.53874 100.35 6.63925 100.808 6.86379C101.41 7.13108 102.047 7.30895 102.699 7.39178C102.903 7.38824 103.104 7.43137 103.288 7.51787C103.586 7.76216 103.892 7.99069 104.198 8.22711L104.606 8.54233C104.881 8.74722 105.164 8.96787 105.399 9.19641ZM104.151 23.5546C103.484 23.397 103.633 23.1764 103.986 22.869L104.316 22.609L104.387 22.5538C104.528 22.4593 104.763 22.4277 104.685 22.215C104.606 22.0022 104.387 21.9707 104.175 21.9943C103.963 22.0179 103.853 22.0416 103.688 22.0652C103.428 22.1071 103.166 22.1335 102.903 22.144C102.323 22.144 102.119 21.8367 102.362 21.356C102.383 21.3262 102.401 21.2946 102.417 21.2614L102.213 21.159L102.417 21.2614C102.654 20.7906 102.863 20.3065 103.045 19.8114C103.118 19.6739 103.143 19.5157 103.115 19.3622C103.115 19.1337 102.864 18.9997 102.487 18.9997C102.111 18.9997 101.915 18.9997 101.632 19.0391L104.096 32.5147H104.143C104.216 32.4752 104.292 32.4435 104.371 32.4202L104.677 25.5248C104.654 25.499 104.636 25.4697 104.622 25.4381C104.627 25.3168 104.65 25.1971 104.693 25.0835L104.74 24.0354C104.683 23.9168 104.6 23.8123 104.499 23.7292C104.397 23.6462 104.278 23.5866 104.151 23.5546Z" fill="#1470B6"/>
<path d="M116.826 18.6838C116.646 22.8003 115.055 26.728 112.322 29.8013C109.589 32.8747 105.881 34.905 101.828 35.5481C100.497 35.7848 99.1419 35.851 97.7943 35.7451C97.3941 35.7451 97.0095 35.6663 96.6014 35.6032C93.3761 35.1544 90.3351 33.8262 87.8091 31.763C85.2831 29.6999 83.3688 26.9807 82.2744 23.9013C81.1801 20.8219 80.9475 17.5002 81.6021 14.2973C82.2566 11.0944 83.7732 8.13311 85.9869 5.73536C88.2006 3.3376 91.0266 1.59523 94.1577 0.69772C97.2887 -0.199785 100.605 -0.218059 103.746 0.644886C106.886 1.50783 109.731 3.21896 111.971 5.59217C114.211 7.96538 115.76 10.9098 116.449 14.1053H118.019C116.574 9.33807 113.4 5.28929 109.124 2.7606C104.848 0.231906 99.7819 -0.592336 94.9294 0.451071C90.077 1.49448 85.7916 4.32946 82.9218 8.39469C80.052 12.4599 78.807 17.459 79.4333 22.4022C80.0596 27.3453 82.5116 31.8721 86.3037 35.0862C90.0959 38.3004 94.9517 39.9675 99.9098 39.7576C104.868 39.5476 109.567 37.4759 113.076 33.9526C116.585 30.4293 118.649 25.7113 118.858 20.7328V18.6838H116.826Z" fill="url(#paint1_linear_77_4370)"/>
<path d="M116.826 18.6843C116.646 22.8008 115.055 26.7284 112.322 29.8018C109.589 32.8752 105.881 34.9054 101.828 35.5485C104.977 34.9853 107.883 33.4802 110.166 31.2303C112.449 28.9805 114.001 26.0907 114.62 22.9397C114.636 22.8458 114.659 22.7535 114.691 22.6639L108.036 22.727C107.329 22.7312 106.649 22.4542 106.145 21.9566C105.64 21.459 105.352 20.7812 105.344 20.0712V18.7867L116.826 18.6843ZM98.9244 3.9399C101.925 3.91872 104.87 4.75127 107.418 6.34118C109.967 7.93109 112.015 10.2133 113.326 12.9236C113.503 13.2863 113.779 13.5908 114.123 13.8015C114.466 14.0123 114.862 14.1205 115.264 14.1136H116.449C115.761 10.9154 114.213 7.96788 111.972 5.59186C109.732 3.21584 106.886 1.50231 103.743 0.637742C100.6 -0.22683 97.2816 -0.20933 94.1481 0.688337C91.0147 1.586 88.1864 3.32945 85.9711 5.72897C83.7557 8.12848 82.2383 11.0921 81.5837 14.2974C80.9292 17.5028 81.1627 20.8269 82.2589 23.9082C83.355 26.9895 85.2718 29.71 87.8006 31.7734C90.3294 33.8369 93.3734 35.1645 96.6014 35.6115C92.6727 34.9859 89.1218 32.9001 86.6533 29.768C84.1849 26.6359 82.9792 22.6865 83.2756 18.7033C83.572 14.7202 85.3488 10.9945 88.2534 8.26557C91.158 5.53662 94.9782 4.00385 98.9558 3.97142L98.9244 3.9399Z" fill="url(#paint2_linear_77_4370)"/>
<defs>
<linearGradient id="paint0_linear_77_4370" x1="95.0606" y1="7.63616" x2="108.292" y2="31.6977" gradientUnits="userSpaceOnUse">
<stop stop-color="#009FE3"/>
<stop offset="1" stop-color="#1D71B8"/>
</linearGradient>
<linearGradient id="paint1_linear_77_4370" x1="118.778" y1="25.3447" x2="82.2504" y2="15.2828" gradientUnits="userSpaceOnUse">
<stop stop-color="#EB5E59"/>
<stop offset="1" stop-color="#BE1622"/>
</linearGradient>
<linearGradient id="paint2_linear_77_4370" x1="81.2286" y1="17.9418" x2="116.826" y2="17.6263" gradientUnits="userSpaceOnUse">
<stop stop-color="#EB5E59"/>
<stop offset="1" stop-color="#BE1622"/>
</linearGradient>
</defs>
</svg>
