<svg width="54" height="54" viewBox="0 0 54 54" fill="none" xmlns="http://www.w3.org/2000/svg">
<path fill-rule="evenodd" clip-rule="evenodd" d="M43.9344 38.3772C43.9344 40.2216 42.4455 41.7105 40.601 41.7105C38.7566 41.7105 37.2677 40.2216 37.2677 38.3772C37.2677 36.5327 38.7566 35.0438 40.601 35.0438C42.4455 35.0438 43.9344 36.5327 43.9344 38.3772ZM38.3788 21.7105H43.9344L48.2899 27.2661H38.3788V21.7105ZM17.2677 38.3772C17.2677 40.2216 15.7788 41.7105 13.9344 41.7105C12.0899 41.7105 10.601 40.2216 10.601 38.3772C10.601 36.5327 12.0899 35.0438 13.9344 35.0438C15.7788 35.0438 17.2677 36.5327 17.2677 38.3772ZM51.7121 27.2661L45.0455 18.3772H38.3788V9.48828H7.26769C4.80102 9.48828 2.82324 11.4661 2.82324 13.9327V38.3772H7.26769C7.26769 42.0661 10.2455 45.0438 13.9344 45.0438C17.6232 45.0438 20.601 42.0661 20.601 38.3772H33.9344C33.9344 42.0661 36.9121 45.0438 40.601 45.0438C44.2899 45.0438 47.2677 42.0661 47.2677 38.3772H51.7121V27.2661ZM7.26769 33.9327V13.9327H33.9344V33.9327H18.9121C17.6899 32.5772 15.9121 31.7105 13.9344 31.7105C11.9566 31.7105 10.1788 32.5772 8.95658 33.9327H7.26769Z" fill="#1C3879"/>
<path d="M22.8232 16.1549L30.601 23.9327L22.8232 31.7105V26.1549H11.7121V21.7105H22.8232V16.1549Z" fill="#1C3879"/>
</svg>
